<svg width="80" height="80" viewBox="0 0 80 80" fill="none" xmlns="http://www.w3.org/2000/svg">
<mask id="path-1-inside-1_4176_167819" fill="white">
<path d="M53.0566 27.7158L41.0518 39.7197L53.333 52.001L52.2852 53.0488L40.0039 40.7676L27.7227 53.0488L26.6758 52.001L38.9561 39.7207L26.9512 27.7158L27.999 26.668L40.0039 38.6729L52.0098 26.668L53.0566 27.7158Z"/>
</mask>
<path d="M53.0566 27.7158L53.7978 28.4571L54.5387 27.7162L53.7982 26.975L53.0566 27.7158ZM41.0518 39.7197L40.3106 38.9785L39.5693 39.7197L40.3106 40.4609L41.0518 39.7197ZM53.333 52.001L54.0742 52.7422L54.8154 52.001L54.0742 51.2598L53.333 52.001ZM52.2852 53.0488L51.544 53.79L52.2852 54.5312L53.0264 53.79L52.2852 53.0488ZM40.0039 40.7676L40.7451 40.0264L40.0039 39.2852L39.2627 40.0264L40.0039 40.7676ZM27.7227 53.0488L26.9811 53.7897L27.7223 54.5316L28.4639 53.79L27.7227 53.0488ZM26.6758 52.001L25.9346 51.2598L25.1937 52.0006L25.9342 52.7418L26.6758 52.001ZM38.9561 39.7207L39.6973 40.4619L40.4385 39.7207L39.6973 38.9795L38.9561 39.7207ZM26.9512 27.7158L26.21 26.9746L25.4688 27.7158L26.21 28.457L26.9512 27.7158ZM27.999 26.668L28.7402 25.9268L27.999 25.1856L27.2578 25.9268L27.999 26.668ZM40.0039 38.6729L39.2627 39.4141L40.0039 40.1552L40.7451 39.4141L40.0039 38.6729ZM52.0098 26.668L52.7513 25.9271L52.0101 25.1852L51.2686 25.9267L52.0098 26.668ZM53.0566 27.7158L52.3155 26.9746L40.3106 38.9785L41.0518 39.7197L41.7929 40.461L53.7978 28.4571L53.0566 27.7158ZM41.0518 39.7197L40.3106 40.4609L52.5918 52.7422L53.333 52.001L54.0742 51.2598L41.793 38.9785L41.0518 39.7197ZM53.333 52.001L52.5918 51.2598L51.544 52.3076L52.2852 53.0488L53.0264 53.79L54.0742 52.7422L53.333 52.001ZM52.2852 53.0488L53.0264 52.3076L40.7451 40.0264L40.0039 40.7676L39.2627 41.5088L51.544 53.79L52.2852 53.0488ZM40.0039 40.7676L39.2627 40.0264L26.9815 52.3076L27.7227 53.0488L28.4639 53.79L40.7451 41.5088L40.0039 40.7676ZM27.7227 53.0488L28.4642 52.308L27.4173 51.2601L26.6758 52.001L25.9342 52.7418L26.9811 53.7897L27.7227 53.0488ZM26.6758 52.001L27.417 52.7422L39.6973 40.4619L38.9561 39.7207L38.2149 38.9795L25.9346 51.2598L26.6758 52.001ZM38.9561 39.7207L39.6973 38.9795L27.6924 26.9746L26.9512 27.7158L26.21 28.457L38.2149 40.4619L38.9561 39.7207ZM26.9512 27.7158L27.6924 28.457L28.7402 27.4092L27.999 26.668L27.2578 25.9268L26.21 26.9746L26.9512 27.7158ZM27.999 26.668L27.2578 27.4092L39.2627 39.4141L40.0039 38.6729L40.7451 37.9316L28.7402 25.9268L27.999 26.668ZM40.0039 38.6729L40.7451 39.4141L52.7509 27.4092L52.0098 26.668L51.2686 25.9267L39.2627 37.9316L40.0039 38.6729ZM52.0098 26.668L51.2682 27.4088L52.3151 28.4567L53.0566 27.7158L53.7982 26.975L52.7513 25.9271L52.0098 26.668Z" fill="black" fill-opacity="0.7" mask="url(#path-1-inside-1_4176_167819)"/>
</svg>
