<svg width="274" height="271" viewBox="0 0 274 271" fill="none" xmlns="http://www.w3.org/2000/svg">
<path d="M137.313 89.0583C136.13 58.1948 130.926 26.0252 110.744 9.13175C82.6931 -14.3299 40.1252 10.8858 46.1512 45.4812C7.05699 41.4009 -19.3005 94.1213 20.0801 118.964C38.8055 130.757 57.9791 134.464 80.4645 135.472C57.7176 136.741 38.3697 140.746 19.4576 152.664C-19.9106 177.494 6.43448 230.214 45.5412 226.134C39.5027 260.729 80.9376 284.514 110.121 262.483C128.137 248.874 134.649 225.425 136.74 200.719C139.081 225.425 145.866 248.874 163.882 262.483C193.066 284.514 234.488 260.742 228.462 226.134C267.557 230.214 293.914 177.494 254.533 152.664C235.783 140.846 216.261 136.803 193.464 135.497C216.248 134.539 235.609 130.894 254.533 118.951C293.914 94.1338 267.569 41.4009 228.462 45.4812C234.488 10.8982 191.92 -14.3299 163.882 9.13175C143.7 26.0252 138.483 58.1948 137.313 89.0583Z" fill="#E3F6CF"/>
</svg>
