<svg width="31" height="31" viewBox="0 0 31 31" fill="none" xmlns="http://www.w3.org/2000/svg">
<path d="M15.4133 10.1139C15.2805 6.60887 14.6963 2.95554 12.4309 1.03704C9.28223 -1.62738 4.50402 1.23624 5.18043 5.16506C0.792141 4.70168 -2.16646 10.6889 2.25397 13.5101C4.35588 14.8494 6.5081 15.2704 9.03207 15.3848C6.47875 15.5289 4.30697 15.9838 2.1841 17.3372C-2.23494 20.157 0.722264 26.1442 5.11195 25.6808C4.43414 29.6096 9.08517 32.3108 12.361 29.8088C14.3833 28.2633 15.1142 25.6003 15.349 22.7946C15.6117 25.6003 16.3734 28.2633 18.3956 29.8088C21.6715 32.3108 26.3211 29.611 25.6447 25.6808C30.033 26.1442 32.9916 20.157 28.5711 17.3372C26.4664 15.9951 24.2751 15.536 21.7162 15.3876C24.2737 15.2788 26.4469 14.8649 28.5711 13.5087C32.9916 10.6903 30.0344 4.70168 25.6447 5.16506C26.3211 1.23765 21.5429 -1.62738 18.3956 1.03704C16.1302 2.95554 15.5446 6.60887 15.4133 10.1139Z" fill="#00B75C"/>
</svg>
